<?xml version="1.0" standalone="no"?>
<!DOCTYPE svg PUBLIC "-//W3C//DTD SVG 20010904//EN"
 "http://www.w3.org/TR/2001/REC-SVG-20010904/DTD/svg10.dtd">
<svg version="1.0" xmlns="http://www.w3.org/2000/svg"
 width="300.000000pt" height="300.000000pt" viewBox="0 0 300.000000 300.000000"
 preserveAspectRatio="xMidYMid meet">
<metadata>
Created by potrace 1.11, written by Peter Selinger 2001-2013
</metadata>
<g transform="translate(0.000000,300.000000) scale(0.100000,-0.100000)"
fill="#000000" stroke="none">
<path d="M0 2553 l0 -446 23 20 c12 11 49 38 82 60 192 128 418 193 673 193
355 0 606 -94 823 -310 100 -99 154 -176 215 -304 38 -81 89 -234 80 -243 -8
-9 -510 -73 -516 -66 -4 4 -15 31 -24 60 -10 28 -34 78 -55 110 -120 184 -303
273 -536 259 -119 -7 -185 -23 -281 -70 -169 -84 -280 -242 -332 -474 -13 -59
-17 -123 -17 -272 0 -171 3 -206 24 -285 57 -222 165 -367 338 -451 92 -45
183 -64 307 -64 151 0 256 34 371 121 102 77 185 216 209 352 l7 37 -241 0
-240 0 0 185 0 185 519 0 519 0 4 -72 c24 -382 -126 -786 -377 -1015 l-68 -63
747 0 746 0 0 1305 0 1305 -225 0 -225 0 0 -1030 0 -1030 -235 0 -235 0 0
1030 0 1030 -395 0 -395 0 0 195 0 195 -645 0 -645 0 0 -447z"/>
<path d="M0 25 c0 -21 5 -25 30 -25 17 0 30 1 30 3 0 2 -13 13 -30 25 l-30 23
0 -26z"/>
</g>
</svg>
